<svg xmlns="http://www.w3.org/2000/svg" width="24" height="24" viewBox="0 0 24 24">
    <path d="M12 0a11.91 11.91 0 0 0-8.483 3.517A11.91 11.91 0 0 0 0 12c0 6.617 5.383 12 12 12 3.208 0 6.22-1.249 8.488-3.517A11.926 11.926 0 0 0 24 12c0-6.617-5.383-12-12-12zm0 2.351c5.32 0 9.649 4.33 9.649 9.649 0 2.576-1.004 5-2.826 6.823A9.584 9.584 0 0 1 12 21.644c-5.32 0-9.649-4.325-9.649-9.644 0-2.576 1.004-5 2.826-6.823A9.589 9.589 0 0 1 12 2.351zm.245 3.037c-2.224 0-3.918 1.47-3.918 3.918h2.449c0-.98.49-1.96 1.469-1.96.98 0 1.567.608 1.45 1.583-.182 1.445-2.92 1.915-2.92 4.472v.803h2.45v-.49c0-1.758 2.938-2.36 2.938-4.898 0-1.959-1.67-3.428-3.918-3.428zm-1.47 10.285v2.45h2.45v-2.45h-2.45z"/>
</svg>
