<svg width="176" height="176" viewBox="0 0 176 176" fill="none" xmlns="http://www.w3.org/2000/svg">
<path fill-rule="evenodd" clip-rule="evenodd" d="M24.6205 69.0268C20.06 64.4664 20.06 57.0724 24.6205 52.512C29.1809 47.9516 36.5748 47.9516 41.1353 52.512L70.7127 82.0894C77.2074 88.2572 80.9713 96.7396 80.2891 105.442C79.5702 114.613 73.9567 122.647 64.6445 126.541L64.0877 126.773L39.1711 134.282C32.996 136.143 26.4815 132.646 24.6205 126.471C22.7595 120.296 26.2567 113.781 32.4319 111.92L55.0738 105.097C55.7103 104.905 56.4279 104.745 56.8197 104.208C56.8909 104.11 56.979 103.95 57.005 103.617C57.0606 102.908 56.7702 101.033 54.5833 98.9812L54.4474 98.8538L24.6205 69.0268Z" fill="url(#paint0_linear_4_20)"/>
<path fill-rule="evenodd" clip-rule="evenodd" d="M102.677 155.028C101.008 161.258 94.6048 164.955 88.3752 163.285V163.285C82.1455 161.616 78.4485 155.213 80.1177 148.983L90.9438 108.58C93.0379 99.8711 98.502 92.3704 106.38 88.6098C114.681 84.647 124.446 85.4912 132.474 91.6093L132.954 91.9751L151.915 109.799C156.614 114.216 156.843 121.607 152.426 126.306V126.306C148.008 131.005 140.618 131.234 135.919 126.816L118.688 110.62C118.204 110.164 117.706 109.623 117.045 109.552V109.552C116.925 109.539 116.742 109.543 116.441 109.687C115.8 109.993 114.321 111.182 113.637 114.102L113.595 114.284L102.677 155.028Z" fill="url(#paint1_linear_4_20)"/>
<path fill-rule="evenodd" clip-rule="evenodd" d="M138.723 46.1202C144.953 44.451 151.356 48.148 153.026 54.3776V54.3776C154.695 60.6073 150.998 67.0107 144.768 68.6799L104.365 79.506C95.7758 82.0467 86.548 81.065 79.3523 76.1229C71.7697 70.915 67.6184 62.0363 68.903 52.0252L68.9798 51.4266L74.935 26.0936C76.4109 19.8153 82.6969 15.9222 88.9752 17.3981V17.3981C95.2535 18.874 99.1466 25.16 97.6707 31.4383L92.2592 54.4586C92.1071 55.1057 91.887 55.8073 92.1562 56.4151V56.4151C92.2052 56.5256 92.3001 56.6821 92.5749 56.8709C93.1611 57.2734 94.9304 57.9597 97.8007 57.0916L97.979 57.0377L138.723 46.1202Z" fill="url(#paint2_linear_4_20)"/>
<defs>
<linearGradient id="paint0_linear_4_20" x1="29.679" y1="115.055" x2="76.8837" y2="122.666" gradientUnits="userSpaceOnUse">
<stop stop-color="#ED54F7"/>
<stop offset="1" stop-color="#5641FF"/>
</linearGradient>
<linearGradient id="paint1_linear_4_20" x1="140.009" y1="127.633" x2="122.998" y2="82.9474" gradientUnits="userSpaceOnUse">
<stop stop-color="#ED54F7"/>
<stop offset="1" stop-color="#5641FF"/>
</linearGradient>
<linearGradient id="paint2_linear_4_20" x1="96.3329" y1="27.4872" x2="66.1393" y2="64.5622" gradientUnits="userSpaceOnUse">
<stop stop-color="#ED54F7"/>
<stop offset="1" stop-color="#5641FF"/>
</linearGradient>
</defs>
</svg>
