<svg xmlns="http://www.w3.org/2000/svg" height="128" version="1.1" viewBox="0 0 100 128" width="100">
    <rect fill="none" height="128" width="100"/>
    <path d="m19.22 76.91c-5.84-5.84-9.05-13.6-9.05-21.85s3.21-16.01 9.05-21.85c5.84-5.83 13.59-9.05 21.85-9.05 8.25 0 16.01 3.22 21.84 9.05 5.84 5.84 9.05 13.6 9.05 21.85s-3.21 16.01-9.05 21.85c-5.83 5.83-13.59 9.05-21.84 9.05-8.26 0-16.01-3.22-21.85-9.05zm80.33 29.6l-26.32-26.32c5.61-7.15 8.68-15.9 8.68-25.13 0-10.91-4.25-21.17-11.96-28.88-7.72-7.71-17.97-11.96-28.88-11.96s-21.17 4.25-28.88 11.96c-7.72 7.71-11.97 17.97-11.97 28.88s4.25 21.17 11.97 28.88c7.71 7.71 17.97 11.96 28.88 11.96 9.23 0 17.98-3.07 25.13-8.68l26.32 26.32 7.03-7.03"/>
</svg>