<?xml version="1.0" encoding="UTF-8"?>
<svg width="23px" height="23px" viewBox="0 0 23 23" version="1.1" 
    xmlns="http://www.w3.org/2000/svg" 
    xmlns:xlink="http://www.w3.org/1999/xlink">
    <!-- Generator: Sketch 49.3 (51167) - http://www.bohemiancoding.com/sketch -->
    <desc>Created with Sketch.</desc>
    <defs></defs>
    <g id="Icons" stroke="none" stroke-width="1">
        <g id="PPE-Icons" transform="translate(-71.000000, -131.000000)">
            <path d="M81.8976405,137.013564 L81.8976405,131 L83.1023595,131 L83.1023595,137.013564 L81.8976405,137.013564 Z M78.195111,139.04664 L73.9429849,134.794513 L74.7936107,133.942885 L79.0467399,138.195011 L78.195111,139.04664 Z M71,143.102359 L71,141.897641 L77.0145667,141.897641 L77.0145667,143.102359 L71,143.102359 Z M74.7939116,151.057316 L73.9422827,150.205687 L78.1954119,145.953561 L79.0460378,146.80519 L74.7939116,151.057316 Z M81.8976405,154 L81.8976405,147.985433 L83.1023595,147.985433 L83.1023595,154 L81.8976405,154 Z M90.206289,151.057316 L85.9541629,146.80519 L86.8037856,145.953561 L91.0569148,150.205687 L90.206289,151.057316 Z M87.9864364,143.102359 L87.9864364,141.897641 L94,141.897641 L94,143.102359 L87.9864364,143.102359 Z M86.8041868,139.04664 L85.953561,138.195011 L90.2066902,133.942885 L91.056313,134.794513 L86.8041868,139.04664 Z" id="icon-spinner"></path>
        </g>
    </g>
</svg>
